<svg width="24" height="24" viewBox="0 0 24 24" fill="none" xmlns="http://www.w3.org/2000/svg">
<path d="M22.8677 12.315L19.988 7.92894C19.8252 7.67862 19.5606 7.53713 19.2757 7.53713H15.5412V3.9251C15.5412 3.41357 15.1545 3 14.6762 3H1.86494C1.38668 3 1 3.41357 1 3.9251V17.8764C1 18.388 1.38668 18.8015 1.86494 18.8015H3.95097C4.3173 20.0749 5.38575 21 6.6679 21C7.95005 21 9.02868 20.0749 9.38483 18.8015H14.6762H15.7243C16.0907 20.0749 17.1591 21 18.4413 21C19.7234 21 20.802 20.064 21.1582 18.8015H22.1351C22.6133 18.8015 23 18.388 23 17.8764V12.8483C23 12.6633 22.9491 12.4782 22.8474 12.315H22.8677ZM2.72988 4.85019H13.8215V16.9513H9.40518C9.38483 16.886 9.36448 16.8316 9.34413 16.7772C9.32377 16.7119 9.30342 16.6466 9.2729 16.5922C9.22202 16.4725 9.16096 16.3528 9.09991 16.233C9.07956 16.1895 9.0592 16.146 9.02868 16.1024C8.9371 15.9501 8.82516 15.8086 8.70305 15.678C8.6827 15.6562 8.65217 15.6344 8.63182 15.6018C8.53007 15.5038 8.42831 15.4059 8.31637 15.3188C8.2655 15.2862 8.22479 15.2535 8.17391 15.2209C8.07216 15.1556 7.98057 15.0903 7.86864 15.0359C7.81776 15.0032 7.75671 14.9814 7.70583 14.9597C7.59389 14.9161 7.48196 14.8726 7.35985 14.8399C7.30897 14.8291 7.25809 14.8073 7.19704 14.7964C7.02405 14.7638 6.85106 14.742 6.6679 14.742C6.48474 14.742 6.31175 14.7638 6.13876 14.7964C6.08788 14.8073 6.037 14.8291 5.97595 14.8399C5.86401 14.8726 5.74191 14.9052 5.62997 14.9597C5.56892 14.9814 5.51804 15.0141 5.46716 15.0359C5.3654 15.0903 5.26364 15.1447 5.16189 15.2209C5.11101 15.2535 5.06013 15.2862 5.01943 15.3188C4.90749 15.4059 4.80574 15.5038 4.70398 15.6018C4.68363 15.6236 4.6531 15.6453 4.63275 15.678C4.51064 15.8086 4.40888 15.9501 4.30712 16.1024C4.2766 16.146 4.25624 16.1895 4.23589 16.233C4.17484 16.3419 4.11378 16.4616 4.0629 16.5922C4.03238 16.6575 4.01203 16.7119 3.99167 16.7772C3.97132 16.8316 3.9408 16.886 3.93062 16.9513H2.7197V4.85019H2.72988ZM6.67808 19.1498C6.05735 19.1498 5.54857 18.573 5.54857 17.8764C5.54857 17.1799 6.05735 16.6031 6.67808 16.6031C7.2988 16.6031 7.80759 17.1799 7.80759 17.8764C7.80759 18.573 7.2988 19.1498 6.67808 19.1498ZM15.5513 9.37644H18.8279L21.2905 13.1312V16.9405H21.1887C21.1684 16.8752 21.1378 16.8207 21.1175 16.7554C21.0971 16.701 21.0768 16.6357 21.0564 16.5813C21.0056 16.4507 20.9445 16.331 20.8733 16.2113C20.8529 16.1677 20.8326 16.1351 20.8122 16.0915C20.7206 15.9392 20.6087 15.7977 20.4866 15.6671C20.4662 15.6453 20.4459 15.6236 20.4154 15.6018C20.3136 15.493 20.2118 15.4059 20.0999 15.3079C20.0592 15.2753 20.0083 15.2426 19.9574 15.21C19.8557 15.1447 19.7539 15.0794 19.6522 15.025C19.6013 14.9923 19.5402 14.9706 19.4894 14.9488C19.3774 14.9052 19.2655 14.8617 19.1434 14.8291C19.0925 14.8182 19.0416 14.7964 18.9806 14.7855C18.8076 14.7529 18.6346 14.7311 18.4514 14.7311C18.2683 14.7311 18.0953 14.7529 17.9223 14.7855C17.8714 14.7964 17.8205 14.8182 17.7595 14.8291C17.6475 14.8617 17.5254 14.8944 17.4135 14.9488C17.3524 14.9706 17.3016 15.0032 17.2507 15.025C17.1489 15.0794 17.0472 15.1338 16.9454 15.1991C16.8945 15.2318 16.8437 15.2644 16.803 15.2971C16.691 15.3841 16.5893 15.4821 16.4875 15.58C16.4672 15.6018 16.4366 15.6236 16.4163 15.6453C16.2942 15.7759 16.1924 15.9174 16.0907 16.0698C16.0703 16.1024 16.05 16.146 16.0296 16.1895C15.9584 16.3092 15.8973 16.4289 15.8464 16.5595C15.8261 16.614 15.8057 16.6684 15.7854 16.7337C15.765 16.799 15.7345 16.8534 15.7142 16.9187H15.5412V9.35467L15.5513 9.37644ZM18.4616 19.1389C17.8409 19.1389 17.3321 18.5621 17.3321 17.8656C17.3321 17.169 17.8409 16.5922 18.4616 16.5922C19.0823 16.5922 19.5911 17.169 19.5911 17.8656C19.5911 18.5621 19.0823 19.1389 18.4616 19.1389Z" fill="black"/>
</svg>
