<svg width="24" height="24" viewBox="0 0 24 24" fill="none" xmlns="http://www.w3.org/2000/svg">
<path d="M21 7.00409H15.85V4.41553C15.85 3.3594 15.02 2.5 14 2.5H10C8.98 2.5 8.15 3.3594 8.15 4.41553V7.00409H3C2.45 7.00409 2 7.47003 2 8.03951V20.4646C2 21.0341 2.45 21.5 3 21.5H21C21.55 21.5 22 21.0341 22 20.4646V8.03951C22 7.47003 21.55 7.00409 21 7.00409ZM9.85 4.41553C9.85 4.3327 9.92 4.26022 10 4.26022H14C14.08 4.26022 14.15 4.3327 14.15 4.41553V7.00409H9.85V4.41553ZM20.3 19.7398H3.7V8.76431H20.3V19.7398Z" fill="black"/>
</svg>
