<svg width="24" height="24" viewBox="0 0 24 24" fill="none" xmlns="http://www.w3.org/2000/svg">
<path d="M14.26 2.88014C14.26 2.88014 14.23 2.84014 14.21 2.83014L12.96 1.39014C12.49 0.860139 11.48 0.870139 11.02 1.42014C10.63 1.89014 10.19 2.37014 9.77 2.85014C7.07 5.90014 3 10.4901 3 14.2601C3 16.5901 3.93 18.7801 5.6 20.4001C7.31 22.0701 9.58 23.0001 12 23.0001C14.42 23.0001 16.71 22.0801 18.4 20.4001C20.06 18.7801 21 16.5301 21 14.2601C21 10.5401 17.11 6.12014 14.26 2.88014ZM16.94 19.2501C15.63 20.5601 13.88 21.2701 12 21.2701C10.12 21.2701 8.39 20.5501 7.05 19.2401C5.7 17.9301 4.95 16.1601 4.95 14.2601C4.95 11.0801 8.78 6.77014 11.31 3.91014C11.54 3.66014 11.77 3.39014 12 3.13014L12.73 3.97014C12.73 3.97014 12.75 3.99014 12.75 4.00014C15.41 7.03014 19.03 11.1601 19.03 14.2601C19.03 16.1201 18.26 17.9301 16.92 19.2501H16.93H16.94Z" fill="black"/>
<path d="M15.1195 13.12H12.8895V10.89C12.8895 10.4 12.4995 10.01 12.0095 10.01C11.5195 10.01 11.1295 10.4 11.1295 10.89V13.12H8.89953C8.40953 13.12 8.01953 13.51 8.01953 14C8.01953 14.49 8.40953 14.88 8.89953 14.88H11.1295V17.11C11.1295 17.6 11.5195 17.99 12.0095 17.99C12.4995 17.99 12.8895 17.6 12.8895 17.11V14.88H15.1195C15.6095 14.88 15.9995 14.49 15.9995 14C15.9995 13.51 15.6095 13.12 15.1195 13.12Z" fill="black"/>
</svg>
