<svg width="24" height="24" viewBox="0 0 24 24" fill="none" xmlns="http://www.w3.org/2000/svg">
<path d="M17.2691 8.4073H6.73014C6.26108 8.4073 5.88184 8.02806 5.88184 7.559C5.88184 7.08994 6.26108 6.71069 6.73014 6.71069H17.2691C17.7381 6.71069 18.1174 7.08994 18.1174 7.559C18.1174 8.02806 17.7381 8.4073 17.2691 8.4073Z" fill="black"/>
<path d="M17.2691 12.8485H6.73014C6.26108 12.8485 5.88184 12.4692 5.88184 12.0002C5.88184 11.5311 6.26108 11.1519 6.73014 11.1519H17.2691C17.7381 11.1519 18.1174 11.5311 18.1174 12.0002C18.1174 12.4692 17.7381 12.8485 17.2691 12.8485Z" fill="black"/>
<path d="M13.3868 17.2796H6.73014C6.26108 17.2796 5.88184 16.9004 5.88184 16.4313C5.88184 15.9622 6.26108 15.583 6.73014 15.583H13.3868C13.8559 15.583 14.2351 15.9622 14.2351 16.4313C14.2351 16.9004 13.8559 17.2796 13.3868 17.2796Z" fill="black"/>
<path d="M21.1517 22H2.8483C2.37924 22 2 21.6208 2 21.1517V2.8483C2 2.37924 2.37924 2 2.8483 2H21.1517C21.6208 2 22 2.37924 22 2.8483V21.1517C22 21.6208 21.6208 22 21.1517 22ZM3.69661 20.3034H20.3034V3.69661H3.69661V20.3034Z" fill="black"/>
</svg>
