<svg width="360" height="50" viewBox="0 0 360 50" fill="none" xmlns="http://www.w3.org/2000/svg">
<rect width="360" height="50" fill="white"/>
<path d="M159.352 31V19.6875H161.695V24.375H166.602V19.6875H168.961V31H166.602V26.3125H161.695V31H159.352ZM174.633 31.1719C172.07 31.1719 170.477 29.4062 170.477 26.7812C170.477 24.1562 172.07 22.4062 174.633 22.4062C177.195 22.4062 178.805 24.1562 178.805 26.7812C178.805 29.4062 177.195 31.1719 174.633 31.1719ZM174.648 29.375C175.836 29.375 176.445 28.2656 176.445 26.7812C176.445 25.2812 175.836 24.1719 174.648 24.1719C173.445 24.1719 172.82 25.2812 172.82 26.7812C172.82 28.2656 173.445 29.375 174.648 29.375ZM180.258 31V22.5156H182.461V24H182.555C182.914 23.0156 183.773 22.4062 184.914 22.4062C186.086 22.4062 186.945 23.0156 187.227 24H187.305C187.664 23.0312 188.617 22.4062 189.867 22.4062C191.445 22.4062 192.539 23.4531 192.539 25.2969V31H190.227V25.75C190.227 24.7812 189.664 24.3125 188.898 24.3125C188.023 24.3125 187.523 24.9219 187.523 25.8125V31H185.273V25.6875C185.273 24.8438 184.742 24.3125 183.961 24.3125C183.18 24.3125 182.57 24.9375 182.57 25.9062V31H180.258ZM198.164 31.1719C195.57 31.1719 193.977 29.4844 193.977 26.7969C193.977 24.1719 195.586 22.4062 198.07 22.4062C200.305 22.4062 202.055 23.8125 202.055 26.7031V27.3594H196.258C196.258 28.6406 197.023 29.4375 198.211 29.4375C198.992 29.4375 199.555 29.0938 199.789 28.5781H201.992C201.664 30.1406 200.258 31.1719 198.164 31.1719ZM196.258 25.9062H199.867C199.867 24.875 199.148 24.1406 198.117 24.1406C197.055 24.1406 196.297 24.9297 196.258 25.9062Z" fill="#111111"/>
<path fill-rule="evenodd" clip-rule="evenodd" d="M23.6504 17.4204C23.6504 16.9115 24.0304 16.5 24.5004 16.5H39.5004C39.9704 16.5 40.3504 16.9115 40.3504 17.4204C40.3504 17.9293 39.9704 18.3408 39.5004 18.3408H24.5004C24.0304 18.3408 23.6504 17.9293 23.6504 17.4204Z" fill="black"/>
<path fill-rule="evenodd" clip-rule="evenodd" d="M23.6504 25C23.6504 24.4911 24.0304 24.0796 24.5004 24.0796H39.5004C39.9704 24.0796 40.3504 24.4911 40.3504 25C40.3504 25.5089 39.9704 25.9204 39.5004 25.9204H24.5004C24.0304 25.9204 23.6504 25.5089 23.6504 25Z" fill="black"/>
<path fill-rule="evenodd" clip-rule="evenodd" d="M23.6504 32.5796C23.6504 32.0707 24.0304 31.6592 24.5004 31.6592H39.5004C39.9704 31.6592 40.3504 32.0707 40.3504 32.5796C40.3504 33.0885 39.9704 33.5 39.5004 33.5H24.5004C24.0304 33.5 23.6504 33.0885 23.6504 32.5796Z" fill="black"/>
<path d="M328 35C326.968 35 325.999 34.6037 325.277 33.8756C324.738 33.3318 324.373 32.659 324.226 31.9309H321.96C321.175 31.9309 320.435 31.6267 319.877 31.0737C319.32 30.5115 319 29.7558 319 28.9723C319 28.5853 319.073 28.1982 319.228 27.8387C319.384 27.4793 319.594 27.1567 319.868 26.8802L321.056 25.7005V21.9309C321.056 20.0783 321.778 18.3364 323.093 17.0276C324.4 15.7189 326.145 15 328 15C329.855 15 331.6 15.7189 332.907 17.0276C334.222 18.3364 334.944 20.0783 334.944 21.9309V25.7005L336.132 26.8802C336.406 27.1567 336.625 27.4793 336.772 27.8387C336.918 28.1982 337 28.5853 337 28.9723C337 29.7558 336.68 30.5115 336.132 31.0645C335.584 31.6083 334.825 31.9217 334.049 31.9217H331.783C331.627 32.6498 331.271 33.3318 330.732 33.8664C330.001 34.5945 329.032 34.9908 328.009 34.9908L328 35ZM325.835 31.9309C325.944 32.235 326.127 32.5207 326.364 32.7604C327.223 33.6175 328.777 33.6175 329.636 32.7604C329.873 32.5207 330.056 32.235 330.165 31.9309H325.825H325.835ZM331.088 30.3641H334.049C334.423 30.3641 334.78 30.2166 335.045 29.9493C335.31 29.682 335.456 29.341 335.456 28.9723C335.456 28.788 335.419 28.6129 335.346 28.447C335.273 28.2811 335.173 28.1244 335.045 27.9954L333.628 26.5853C333.482 26.4378 333.4 26.235 333.4 26.0323V21.9401C333.4 20.5115 332.843 19.1659 331.828 18.1521C330.805 17.1382 329.453 16.576 328.009 16.576C326.565 16.576 325.195 17.1475 324.19 18.1521C323.176 19.1659 322.618 20.5115 322.618 21.9401V26.0323C322.618 26.2442 322.536 26.447 322.39 26.5853L320.974 27.9954C320.846 28.1244 320.745 28.2719 320.672 28.447C320.599 28.6129 320.572 28.788 320.572 28.9723C320.572 29.341 320.718 29.6912 320.983 29.9493C321.248 30.2074 321.604 30.3641 321.979 30.3641H331.107H331.088Z" fill="black"/>
</svg>
